HIERARCHY
ROOT Hips
{
	OFFSET 0.000000 100.481300 0.000000
	CHANNELS 6 Xposition Yposition Zposition Xrotation Yrotation Zrotation 
	JOINT Spine
	{
		OFFSET -0.279200 12.230698 -2.892100
		CHANNELS 3 Xrotation Yrotation Zrotation
		JOINT Spine1
		{
			OFFSET -0.232667 10.192268 -1.242267
			CHANNELS 3 Xrotation Yrotation Zrotation
			JOINT Spine1_split
			{
				OFFSET -0.232667 10.192268 -1.242267
				CHANNELS 3 Xrotation Yrotation Zrotation
				JOINT Spine2
				{
					OFFSET -0.232667 10.192268 -1.242267
					CHANNELS 3 Xrotation Yrotation Zrotation
					JOINT Neck
					{
						OFFSET -0.418800 17.814194 8.416900
						CHANNELS 3 Xrotation Yrotation Zrotation
						JOINT Head
						{
							OFFSET 0.000000 7.031097 3.806800
							CHANNELS 3 Xrotation Yrotation Zrotation
							JOINT HeadTop_End
							{
								OFFSET 0.000000 24.646606 12.978600
								CHANNELS 3 Xrotation Yrotation Zrotation
								End Site
								{
									OFFSET 0.000000 0.000000 0.000000
								}
							}
						}
					}
					JOINT LeftShoulder
					{
						OFFSET 8.476499 7.247704 -3.868750
						CHANNELS 3 Xrotation Yrotation Zrotation
						JOINT LeftShoulder_split
						{
							OFFSET 8.476499 7.247704 -3.868750
							CHANNELS 3 Xrotation Yrotation Zrotation
							JOINT LeftArm
							{
								OFFSET 9.308998 -2.777710 0.208600
								CHANNELS 3 Xrotation Yrotation Zrotation
								JOINT LeftForeArm
								{
									OFFSET 29.972298 0.000000 0.000000
									CHANNELS 3 Xrotation Yrotation Zrotation
									JOINT LeftHand
									{
										OFFSET 26.026505 0.000000 0.000000
										CHANNELS 3 Xrotation Yrotation Zrotation
										JOINT LeftHandThumb1
										{
											OFFSET 12.240501 -7.147949 9.207150
											CHANNELS 3 Xrotation Yrotation Zrotation
											JOINT LeftHandThumb2
											{
												OFFSET 4.138618 -2.389435 2.389433
												CHANNELS 3 Xrotation Yrotation Zrotation
												JOINT LeftHandThumb3
												{
													OFFSET 2.726913 -1.574387 1.574386
													CHANNELS 3 Xrotation Yrotation Zrotation
													JOINT LeftHandThumb4
													{
														OFFSET 3.941010 -2.275345 2.275342
														CHANNELS 3 Xrotation Yrotation Zrotation
														End Site
														{
															OFFSET 0.000000 0.000000 0.000000
														}
													}
												}
											}
										}
										JOINT LeftHandIndex1
										{
											OFFSET 24.424698 -1.985611 5.953459
											CHANNELS 3 Xrotation Yrotation Zrotation
											JOINT LeftHandIndex2
											{
												OFFSET 6.426697 0.000000 0.000000
												CHANNELS 3 Xrotation Yrotation Zrotation
												JOINT LeftHandIndex3
												{
													OFFSET 5.337898 0.000000 0.000000
													CHANNELS 3 Xrotation Yrotation Zrotation
													JOINT LeftHandIndex4
													{
														OFFSET 4.409401 0.000000 0.000000
														CHANNELS 3 Xrotation Yrotation Zrotation
														End Site
														{
															OFFSET 0.000000 0.000000 0.000000
														}
													}
												}
											}
										}
										JOINT LeftHandMiddle1
										{
											OFFSET 23.810104 0.000000 0.000000
											CHANNELS 3 Xrotation Yrotation Zrotation
											JOINT LeftHandMiddle2
											{
												OFFSET 7.176498 0.000000 0.000000
												CHANNELS 3 Xrotation Yrotation Zrotation
												JOINT LeftHandMiddle3
												{
													OFFSET 6.774902 0.000000 0.000000
													CHANNELS 3 Xrotation Yrotation Zrotation
													JOINT LeftHandMiddle4
													{
														OFFSET 5.403328 0.000000 0.000000
														CHANNELS 3 Xrotation Yrotation Zrotation
														End Site
														{
															OFFSET 0.000000 0.000000 0.000000
														}
													}
												}
											}
										}
										JOINT LeftHandRing1
										{
											OFFSET 22.908401 -0.839279 -6.020567
											CHANNELS 3 Xrotation Yrotation Zrotation
											JOINT LeftHandRing2
											{
												OFFSET 6.337502 0.000000 0.000000
												CHANNELS 3 Xrotation Yrotation Zrotation
												JOINT LeftHandRing3
												{
													OFFSET 5.779297 0.000000 0.000000
													CHANNELS 3 Xrotation Yrotation Zrotation
													JOINT LeftHandRing4
													{
														OFFSET 4.965698 0.000000 0.000000
														CHANNELS 3 Xrotation Yrotation Zrotation
														End Site
														{
															OFFSET 0.000000 0.000000 0.000000
														}
													}
												}
											}
										}
										JOINT LeftHandPinky1
										{
											OFFSET 20.037003 -1.530319 -10.950146
											CHANNELS 3 Xrotation Yrotation Zrotation
											JOINT LeftHandPinky2
											{
												OFFSET 5.254700 0.000000 0.000000
												CHANNELS 3 Xrotation Yrotation Zrotation
												JOINT LeftHandPinky3
												{
													OFFSET 4.810204 0.000000 0.000000
													CHANNELS 3 Xrotation Yrotation Zrotation
													JOINT LeftHandPinky4
													{
														OFFSET 3.647202 0.000000 0.000000
														CHANNELS 3 Xrotation Yrotation Zrotation
														End Site
														{
															OFFSET 0.000000 0.000000 0.000000
														}
													}
												}
											}
										}
									}
								}
							}
						}
					}
					JOINT RightShoulder
					{
						OFFSET -7.570500 7.247704 -3.868750
						CHANNELS 3 Xrotation Yrotation Zrotation
						JOINT RightShoulder_split
						{
							OFFSET -7.570500 7.247704 -3.868750
							CHANNELS 3 Xrotation Yrotation Zrotation
							JOINT RightArm
							{
								OFFSET -9.308998 -2.777710 0.208500
								CHANNELS 3 Xrotation Yrotation Zrotation
								JOINT RightForeArm
								{
									OFFSET -29.972300 0.000000 0.000000
									CHANNELS 3 Xrotation Yrotation Zrotation
									JOINT RightHand
									{
										OFFSET -26.026505 0.000000 0.000000
										CHANNELS 3 Xrotation Yrotation Zrotation
										JOINT RightHandThumb1
										{
											OFFSET -12.240601 -7.148026 9.207092
											CHANNELS 3 Xrotation Yrotation Zrotation
											JOINT RightHandThumb2
											{
												OFFSET -4.138618 -2.389435 2.389433
												CHANNELS 3 Xrotation Yrotation Zrotation
												JOINT RightHandThumb3
												{
													OFFSET -2.726974 -1.574417 1.574421
													CHANNELS 3 Xrotation Yrotation Zrotation
													JOINT RightHandThumb4
													{
														OFFSET -3.941010 -2.275345 2.275343
														CHANNELS 3 Xrotation Yrotation Zrotation
														End Site
														{
															OFFSET 0.000000 0.000000 0.000000
														}
													}
												}
											}
										}
										JOINT RightHandIndex1
										{
											OFFSET -24.424698 -1.985657 5.953444
											CHANNELS 3 Xrotation Yrotation Zrotation
											JOINT RightHandIndex2
											{
												OFFSET -6.426697 0.000000 0.000000
												CHANNELS 3 Xrotation Yrotation Zrotation
												JOINT RightHandIndex3
												{
													OFFSET -5.337898 0.000000 0.000000
													CHANNELS 3 Xrotation Yrotation Zrotation
													JOINT RightHandIndex4
													{
														OFFSET -4.409401 0.000000 0.000000
														CHANNELS 3 Xrotation Yrotation Zrotation
														End Site
														{
															OFFSET 0.000000 0.000000 0.000000
														}
													}
												}
											}
										}
										JOINT RightHandMiddle1
										{
											OFFSET -23.810097 0.000000 0.000000
											CHANNELS 3 Xrotation Yrotation Zrotation
											JOINT RightHandMiddle2
											{
												OFFSET -7.176498 0.000000 0.000000
												CHANNELS 3 Xrotation Yrotation Zrotation
												JOINT RightHandMiddle3
												{
													OFFSET -6.774902 0.000000 0.000000
													CHANNELS 3 Xrotation Yrotation Zrotation
													JOINT RightHandMiddle4
													{
														OFFSET -5.403328 0.000000 0.000000
														CHANNELS 3 Xrotation Yrotation Zrotation
														End Site
														{
															OFFSET 0.000000 0.000000 0.000000
														}
													}
												}
											}
										}
										JOINT RightHandRing1
										{
											OFFSET -22.908302 -0.839325 -6.020576
											CHANNELS 3 Xrotation Yrotation Zrotation
											JOINT RightHandRing2
											{
												OFFSET -6.337502 0.000000 0.000000
												CHANNELS 3 Xrotation Yrotation Zrotation
												JOINT RightHandRing3
												{
													OFFSET -5.779297 0.000000 0.000000
													CHANNELS 3 Xrotation Yrotation Zrotation
													JOINT RightHandRing4
													{
														OFFSET -4.965698 0.000000 0.000000
														CHANNELS 3 Xrotation Yrotation Zrotation
														End Site
														{
															OFFSET 0.000000 0.000000 0.000000
														}
													}
												}
											}
										}
										JOINT RightHandPinky1
										{
											OFFSET -20.037003 -1.530334 -10.950259
											CHANNELS 3 Xrotation Yrotation Zrotation
											JOINT RightHandPinky2
											{
												OFFSET -5.254700 0.000000 0.000000
												CHANNELS 3 Xrotation Yrotation Zrotation
												JOINT RightHandPinky3
												{
													OFFSET -4.810204 0.000000 0.000000
													CHANNELS 3 Xrotation Yrotation Zrotation
													JOINT RightHandPinky4
													{
														OFFSET -3.647202 0.000000 0.000000
														CHANNELS 3 Xrotation Yrotation Zrotation
														End Site
														{
															OFFSET 0.000000 0.000000 0.000000
														}
													}
												}
											}
										}
									}
								}
							}
						}
					}
				}
			}
		}
	}
	JOINT LeftUpLeg
	{
		OFFSET 15.427100 -6.655098 0.678600
		CHANNELS 3 Xrotation Yrotation Zrotation
		JOINT LeftLeg
		{
			OFFSET 4.081073 -39.591068 13.024000
			CHANNELS 3 Xrotation Yrotation Zrotation
			JOINT LeftFoot
			{
				OFFSET -4.081074 -37.707932 -15.979700
				CHANNELS 3 Xrotation Yrotation Zrotation
				JOINT LeftToeBase
				{
					OFFSET 5.346399 -15.068900 20.645000
					CHANNELS 3 Xrotation Yrotation Zrotation
					JOINT LeftToe_End
					{
						OFFSET 2.754700 0.931300 11.300900
						CHANNELS 3 Xrotation Yrotation Zrotation
						End Site
						{
							OFFSET 0.000000 0.000000 0.000000
						}
					}
				}
			}
		}
	}
	JOINT RightUpLeg
	{
		OFFSET -15.569500 -6.655098 0.678600
		CHANNELS 3 Xrotation Yrotation Zrotation
		JOINT RightLeg
		{
			OFFSET -4.081825 -39.591045 13.023800
			CHANNELS 3 Xrotation Yrotation Zrotation
			JOINT RightFoot
			{
				OFFSET 4.081824 -37.707954 -15.979600
				CHANNELS 3 Xrotation Yrotation Zrotation
				JOINT RightToeBase
				{
					OFFSET -5.346400 -15.068900 20.645000
					CHANNELS 3 Xrotation Yrotation Zrotation
					JOINT RightToe_End
					{
						OFFSET -2.754700 0.931300 11.300900
						CHANNELS 3 Xrotation Yrotation Zrotation
						End Site
						{
							OFFSET 0.000000 0.000000 0.000000
						}
					}
				}
			}
		}
	}
}
MOTION
Frames: 5
Frame Time: 0.016667
0.340554 91.826492 -1.091808 -0.587345 -0.357572 -0.369598 0.361416 -0.191608 0.321628 -1.750145 -0.199001 0.196420 0.000000 0.000000 0.000000 -1.750108 -0.188404 0.203701 -0.289761 -0.205837 -0.385588 4.702786 -2.136757 3.065842 -0.000000 0.000000 -0.000000 0.993405 -13.202430 -11.017494 0.000000 0.000000 0.000000 16.778887 -19.384220 -67.597385 0.000006 -17.727271 0.000013 -41.262221 6.787881 3.627188 -5.917871 16.359054 4.033984 -3.203477 11.997058 3.444679 -3.261082 13.950626 3.246339 0.000002 0.000002 -0.000000 0.260632 1.880087 -15.783534 0.260634 1.880094 -15.783604 0.260630 1.880084 -15.783522 -0.000000 -0.000000 -0.000001 0.523425 2.637843 -22.443069 0.524902 2.641404 -22.475111 0.524162 2.639623 -22.459098 -0.000000 0.000000 0.000001 0.898045 3.405137 -29.540971 0.898046 3.405137 -29.540964 0.898044 3.405133 -29.540968 -0.000001 0.000000 -0.000000 2.843606 6.562529 -31.481913 1.050195 -0.422459 -32.253605 1.038112 3.640770 -31.820072 0.000000 -0.000001 -0.000000 1.651816 9.058840 10.503891 0.000000 0.000000 0.000000 6.412944 25.534616 64.587512 0.000004 12.370156 -0.000011 -21.507975 -14.216155 -3.290112 7.843978 -10.746960 2.716235 0.430960 -17.559387 -11.583969 6.895770 -19.301001 -4.640270 -0.000002 0.000003 -0.000002 0.528290 -2.663086 22.437118 0.528293 -2.663084 22.437130 0.528295 -2.663089 22.437120 0.000001 -0.000002 -0.000001 1.160562 -3.851147 33.530095 1.160568 -3.851145 33.530112 1.160565 -3.851149 33.530102 -0.000000 0.000002 0.000000 1.843400 -4.719922 42.648418 1.843403 -4.719928 42.648432 1.843404 -4.719926 42.648439 -0.000001 -0.000001 -0.000001 1.994901 -4.878717 44.459098 1.994914 -4.878724 44.459122 1.994902 -4.878706 44.459101 0.000000 -0.000001 0.000003 -10.253183 4.768216 9.438416 25.279865 3.802540 1.525176 -13.595324 1.731441 -10.976966 -0.000004 0.000006 0.000006 0.000000 0.000000 -0.000000 -10.218086 1.699162 -3.328966 25.518051 -0.915145 -2.095863 -14.517347 -1.566453 6.215990 -0.000030 0.000000 0.000003 0.000000 0.000000 0.000000 
0.359205 91.840683 -1.103948 -0.575582 -0.339565 -0.333273 0.375185 -0.170616 0.299324 -1.755795 -0.176235 0.190827 0.000000 0.000000 0.000000 -1.755715 -0.166635 0.197366 -0.262666 -0.209938 -0.406779 4.752854 -2.162301 3.061369 -0.000000 0.000000 0.000000 0.994040 -13.267616 -11.041540 0.000000 0.000000 0.000000 16.766352 -19.385894 -67.571314 0.000002 -17.712815 0.000013 -41.267115 6.584307 3.801899 -5.917869 16.359060 4.033975 -3.203479 11.997055 3.444702 -3.261091 13.950628 3.246333 0.000001 0.000001 0.000000 0.260631 1.880088 -15.783529 0.260633 1.880094 -15.783608 0.260630 1.880083 -15.783507 -0.000000 -0.000000 -0.000003 0.523425 2.637844 -22.443083 0.524901 2.641406 -22.475094 0.524162 2.639623 -22.459095 -0.000000 0.000000 0.000004 0.898046 3.405139 -29.540998 0.898045 3.405136 -29.540964 0.898045 3.405130 -29.540971 0.000000 -0.000000 0.000000 2.843605 6.562529 -31.481896 1.050196 -0.422459 -32.253625 1.038112 3.640770 -31.820079 0.000000 -0.000000 -0.000000 1.651096 9.037779 10.513389 0.000000 0.000000 0.000000 6.473518 25.519861 64.541429 0.000000 12.373795 -0.000017 -21.518697 -14.342738 -3.277680 7.843977 -10.746965 2.716222 0.430962 -17.559390 -11.583969 6.895750 -19.300993 -4.640287 0.000000 0.000002 -0.000002 0.528293 -2.663085 22.437115 0.528292 -2.663083 22.437130 0.528292 -2.663088 22.437105 0.000001 -0.000000 -0.000001 1.160562 -3.851146 33.530075 1.160566 -3.851147 33.530095 1.160565 -3.851150 33.530109 0.000000 -0.000003 -0.000000 1.843401 -4.719924 42.648425 1.843403 -4.719923 42.648425 1.843405 -4.719922 42.648439 0.000000 0.000001 0.000001 1.994907 -4.878713 44.459091 1.994910 -4.878726 44.459122 1.994905 -4.878715 44.459101 -0.000001 0.000000 0.000001 -10.271180 4.807539 9.361633 25.244224 3.771046 1.570224 -13.563531 1.724312 -10.986482 -0.000021 -0.000002 0.000013 -0.000000 -0.000000 0.000000 -10.224627 1.669337 -3.409001 25.500257 -0.928747 -2.062146 -14.501221 -1.559461 6.223584 -0.000085 0.000000 -0.000002 0.000000 0.000000 -0.000000 
0.389677 91.849113 -1.115642 -0.563326 -0.326343 -0.282573 0.389220 -0.149196 0.273821 -1.758987 -0.152911 0.185722 0.000000 0.000000 0.000000 -1.758853 -0.144486 0.191302 -0.234933 -0.223743 -0.429562 4.682464 -2.228106 3.016739 -0.000000 -0.000000 -0.000000 0.994575 -13.331120 -11.067194 0.000000 0.000000 0.000000 16.711236 -19.428799 -67.559402 0.000004 -17.694293 0.000011 -41.232841 6.340766 3.993477 -5.917870 16.359051 4.033984 -3.203477 11.997057 3.444681 -3.261097 13.950622 3.246346 -0.000001 -0.000002 0.000000 0.260631 1.880087 -15.783544 0.260634 1.880094 -15.783590 0.260630 1.880083 -15.783519 -0.000000 -0.000000 -0.000000 0.523426 2.637841 -22.443073 0.524901 2.641405 -22.475108 0.524161 2.639625 -22.459096 -0.000000 0.000000 0.000003 0.898044 3.405137 -29.540957 0.898047 3.405139 -29.540954 0.898044 3.405131 -29.540978 -0.000000 0.000000 -0.000000 2.843606 6.562531 -31.481886 1.050196 -0.422461 -32.253601 1.038111 3.640772 -31.820082 0.000000 -0.000000 -0.000000 1.655696 9.081048 10.518683 0.000000 0.000000 0.000000 6.559972 25.463661 64.487313 0.000006 12.345259 -0.000009 -21.449308 -14.196719 -3.323721 7.843974 -10.746962 2.716244 0.430945 -17.559395 -11.584003 6.895770 -19.300989 -4.640267 -0.000000 -0.000002 -0.000001 0.528295 -2.663086 22.437100 0.528291 -2.663080 22.437139 0.528294 -2.663087 22.437101 0.000000 -0.000000 0.000002 1.160564 -3.851147 33.530082 1.160565 -3.851149 33.530085 1.160562 -3.851145 33.530106 0.000000 0.000000 -0.000000 1.843400 -4.719920 42.648418 1.843395 -4.719922 42.648432 1.843406 -4.719926 42.648435 0.000000 -0.000000 0.000000 1.994908 -4.878717 44.459095 1.994913 -4.878720 44.459142 1.994906 -4.878708 44.459105 -0.000001 -0.000001 0.000003 -10.289636 4.851444 9.259502 25.219843 3.744057 1.618197 -13.542652 1.715920 -10.993699 -0.000058 0.000003 0.000044 0.000000 -0.000001 -0.000000 -10.243057 1.629146 -3.520194 25.501929 -0.919442 -2.017952 -14.493870 -1.550850 6.229711 -0.000150 0.000001 -0.000003 -0.000000 0.000000 -0.000000 
0.430150 91.868431 -1.130572 -0.547709 -0.341017 -0.218599 0.417449 -0.120999 0.241625 -1.760835 -0.122205 0.183156 0.000000 0.000000 0.000000 -1.760679 -0.115203 0.187763 -0.200768 -0.240773 -0.429505 4.617260 -2.258966 2.936578 -0.000000 0.000000 0.000000 0.993603 -13.360153 -11.115197 0.000000 0.000000 0.000000 16.611220 -19.504164 -67.520436 0.000002 -17.678775 -0.000004 -41.176543 6.072794 4.205085 -5.917867 16.359054 4.033984 -3.203475 11.997062 3.444661 -3.261094 13.950614 3.246354 -0.000001 -0.000002 -0.000001 0.260633 1.880086 -15.783519 0.260633 1.880095 -15.783616 0.260630 1.880082 -15.783493 0.000000 -0.000000 0.000000 0.523426 2.637842 -22.443069 0.524900 2.641405 -22.475113 0.524161 2.639622 -22.459076 0.000000 0.000000 0.000003 0.898045 3.405136 -29.540968 0.898046 3.405138 -29.540968 0.898044 3.405131 -29.540968 -0.000000 -0.000000 0.000000 2.843605 6.562530 -31.481879 1.050197 -0.422460 -32.253625 1.038111 3.640772 -31.820072 -0.000000 -0.000001 0.000000 1.663816 9.137678 10.542186 0.000000 0.000000 0.000000 6.627465 25.453455 64.389259 0.000003 12.280770 -0.000001 -21.391213 -14.081765 -3.324055 7.843979 -10.746961 2.716239 0.430967 -17.559397 -11.583956 6.895744 -19.300994 -4.640295 -0.000000 0.000001 -0.000004 0.528294 -2.663086 22.437127 0.528292 -2.663088 22.437110 0.528297 -2.663086 22.437112 0.000000 -0.000002 0.000001 1.160564 -3.851146 33.530102 1.160565 -3.851143 33.530102 1.160564 -3.851151 33.530088 0.000000 0.000001 0.000000 1.843404 -4.719922 42.648418 1.843399 -4.719917 42.648435 1.843402 -4.719923 42.648432 -0.000000 0.000001 0.000001 1.994909 -4.878716 44.459112 1.994913 -4.878725 44.459112 1.994902 -4.878694 44.459098 -0.000000 0.000001 -0.000001 -10.277947 4.880732 9.158689 25.158032 3.752211 1.620385 -13.507041 1.711741 -10.986615 -0.000064 0.000001 0.000045 -0.000000 0.000000 0.000000 -10.266788 1.631520 -3.653982 25.482833 -0.899525 -1.961988 -14.464065 -1.540133 6.238272 -0.000004 0.000001 0.000001 -0.000000 0.000000 0.000000 
0.475605 91.895737 -1.135340 -0.564044 -0.349671 -0.204456 0.467957 -0.095865 0.238017 -1.726140 -0.094856 0.195358 0.000000 0.000000 0.000000 -1.725988 -0.088045 0.198933 -0.219294 -0.239945 -0.477885 4.665765 -2.296425 2.991046 -0.000000 0.000000 -0.000000 0.991734 -13.323550 -11.148006 0.000000 0.000000 0.000000 16.457985 -19.698178 -67.507329 0.000004 -17.673552 -0.000016 -41.096620 5.772185 4.448260 -5.917868 16.359054 4.033985 -3.203484 11.997057 3.444712 -3.261100 13.950636 3.246345 0.000000 0.000001 -0.000001 0.260632 1.880088 -15.783546 0.260634 1.880095 -15.783616 0.260630 1.880082 -15.783507 0.000000 -0.000000 -0.000001 0.523427 2.637841 -22.443076 0.524899 2.641405 -22.475103 0.524163 2.639623 -22.459100 -0.000000 -0.000000 0.000001 0.898046 3.405138 -29.540975 0.898046 3.405138 -29.540975 0.898044 3.405132 -29.540964 0.000000 0.000000 0.000000 2.843603 6.562528 -31.481896 1.050197 -0.422460 -32.253622 1.038111 3.640770 -31.820082 -0.000000 -0.000000 -0.000000 1.661473 9.155294 10.510909 0.000000 0.000000 0.000000 6.689137 25.490503 64.312993 -0.000007 12.254245 -0.000008 -21.261704 -14.116861 -3.384012 7.843982 -10.746965 2.716235 0.430954 -17.559395 -11.583975 6.895756 -19.300991 -4.640289 -0.000002 0.000000 -0.000000 0.528293 -2.663088 22.437107 0.528290 -2.663083 22.437132 0.528294 -2.663084 22.437103 0.000001 -0.000001 -0.000001 1.160567 -3.851147 33.530095 1.160567 -3.851146 33.530116 1.160562 -3.851152 33.530088 -0.000000 -0.000001 -0.000000 1.843409 -4.719923 42.648432 1.843403 -4.719924 42.648418 1.843403 -4.719922 42.648432 0.000000 0.000001 -0.000001 1.994907 -4.878717 44.459095 1.994914 -4.878726 44.459122 1.994904 -4.878709 44.459115 -0.000002 0.000002 0.000001 -10.218623 4.843116 9.128025 25.103121 3.796887 1.573838 -13.487554 1.704128 -10.979222 0.000001 0.000003 -0.000001 0.000000 0.000000 0.000000 -10.223904 1.583705 -3.723550 25.410862 -0.870145 -1.934495 -14.419252 -1.527411 6.248568 -0.000057 0.000000 0.000001 0.000000 0.000000 0.000000 
